<?xml version="1.0" encoding="UTF-8" standalone="no"?>
<svg
   xmlns:dc="http://purl.org/dc/elements/1.1/"
   xmlns:cc="http://creativecommons.org/ns#"
   xmlns:rdf="http://www.w3.org/1999/02/22-rdf-syntax-ns#"
   xmlns:svg="http://www.w3.org/2000/svg"
   xmlns="http://www.w3.org/2000/svg"
   xmlns:sodipodi="http://sodipodi.sourceforge.net/DTD/sodipodi-0.dtd"
   xmlns:inkscape="http://www.inkscape.org/namespaces/inkscape"
   width="600"
   height="208.66176"
   viewBox="0 0 158.74996 55.208422"
   version="1.1"
   id="svg910"
   sodipodi:docname="horizontal_color_committer_variant.svg"
   inkscape:export-filename="/home/anxhelo/works/TeleIRC/PNG/horizontal_color.png"
   inkscape:export-xdpi="96"
   inkscape:export-ydpi="96"
   inkscape:version="1.0.1 (3bc2e813f5, 2020-09-07)">
  <title
     id="title839">TeleIRC Committer sticker</title>
  <defs
     id="defs904" />
  <sodipodi:namedview
     id="base"
     pagecolor="#ffffff"
     bordercolor="#666666"
     borderopacity="1.0"
     inkscape:pageopacity="0.0"
     inkscape:pageshadow="2"
     inkscape:zoom="1.85"
     inkscape:cx="305.17942"
     inkscape:cy="82.942212"
     inkscape:document-units="mm"
     inkscape:current-layer="g1486"
     showgrid="false"
     units="px"
     fit-margin-top="0"
     fit-margin-left="0"
     fit-margin-right="0"
     fit-margin-bottom="0"
     inkscape:window-width="1916"
     inkscape:window-height="961"
     inkscape:window-x="1920"
     inkscape:window-y="100"
     inkscape:window-maximized="1"
     inkscape:document-rotation="0" />
  <metadata
     id="metadata907">
    <rdf:RDF>
      <cc:Work
         rdf:about="">
        <dc:format>image/svg+xml</dc:format>
        <dc:type
           rdf:resource="http://purl.org/dc/dcmitype/StillImage" />
        <dc:title>TeleIRC Committer sticker</dc:title>
        <cc:license
           rdf:resource="http://creativecommons.org/licenses/by-nc-sa/4.0/" />
        <dc:date>2020-04-17</dc:date>
        <dc:creator>
          <cc:Agent>
            <dc:title>Justin W. Flory</dc:title>
          </cc:Agent>
        </dc:creator>
        <dc:rights>
          <cc:Agent>
            <dc:title>CC BY-NC-SA 4.0</dc:title>
          </cc:Agent>
        </dc:rights>
        <dc:publisher>
          <cc:Agent>
            <dc:title>docs.teleirc.com</dc:title>
          </cc:Agent>
        </dc:publisher>
        <dc:language>en</dc:language>
        <dc:contributor>
          <cc:Agent>
            <dc:title>Original logo design by Ura Design (https://ura.design/)</dc:title>
          </cc:Agent>
        </dc:contributor>
      </cc:Work>
      <cc:License
         rdf:about="http://creativecommons.org/licenses/by-nc-sa/4.0/">
        <cc:permits
           rdf:resource="http://creativecommons.org/ns#Reproduction" />
        <cc:permits
           rdf:resource="http://creativecommons.org/ns#Distribution" />
        <cc:requires
           rdf:resource="http://creativecommons.org/ns#Notice" />
        <cc:requires
           rdf:resource="http://creativecommons.org/ns#Attribution" />
        <cc:prohibits
           rdf:resource="http://creativecommons.org/ns#CommercialUse" />
        <cc:permits
           rdf:resource="http://creativecommons.org/ns#DerivativeWorks" />
        <cc:requires
           rdf:resource="http://creativecommons.org/ns#ShareAlike" />
      </cc:License>
    </rdf:RDF>
  </metadata>
  <g
     inkscape:label="Layer 1"
     inkscape:groupmode="layer"
     id="layer1"
     transform="translate(-25.193409,-110.64569)">
    <g
       id="g1486"
       transform="translate(11.339286,9.827381)">
      <path
         id="path42"
         d="m 41.459698,100.81831 c -2.052637,0 -4.10533,0.78323 -5.671489,2.34921 l -19.58485,19.58485 c -3.132315,3.13231 -3.132315,8.21066 0,11.34298 l 0.06356,0.0636 c 2.166096,-0.72653 7.360452,-2.19444 15.667778,-2.89388 v -7.27398 h 4.938718 v 6.9727 c 1.455209,-0.0554 2.983614,-0.0863 4.586282,-0.0863 1.602668,0 3.131076,0.0309 4.586282,0.0863 v -6.9727 h 4.938718 v 7.27398 c 8.307324,0.69944 13.501684,2.16735 15.667774,2.89388 l 0.0636,-0.0636 c 3.13232,-3.13232 3.13232,-8.21067 0,-11.34298 L 47.131187,103.16752 c -1.566159,-1.56598 -3.618852,-2.34921 -5.671489,-2.34921 z m 6.4301,6.23424 c 0.09755,0.008 0.193934,0.0463 0.286803,0.13384 0.296333,0.27976 0.135167,0.58111 0.01241,0.8785 -2.006246,4.86763 -4.010391,9.736 -6.018753,14.60221 -0.118181,0.28611 -0.185584,0.62761 -0.587044,0.70487 -0.446265,-0.008 -0.548283,-0.39099 -0.702799,-0.70073 -0.73025,-1.46368 -1.477163,-2.91957 -2.164725,-4.40335 -0.335847,-0.72496 -0.802818,-1.22406 -1.540476,-1.56166 -1.523294,-0.69639 -3.012374,-1.46648 -4.512387,-2.2133 -0.279045,-0.139 -0.631042,-0.25062 -0.627867,-0.64079 0.0032,-0.39829 0.360786,-0.48726 0.651121,-0.6072 4.902907,-2.02318 9.806956,-4.04418 14.710214,-6.0663 0.164042,-0.0675 0.330914,-0.1391 0.493511,-0.12609 z m -6.4301,28.76414 c -1.610076,0 -3.137072,0.0331 -4.586282,0.0909 v 9.25008 h 9.172564 v -9.24905 c -1.450621,-0.0586 -2.977264,-0.092 -4.586282,-0.092 z m -9.525,0.40359 c -5.344305,0.47263 -9.224399,1.27138 -11.691792,1.91461 l 7.022828,7.02283 h 4.668964 z m 19.05,0.005 v 8.93227 h 4.668964 l 7.01508,-7.01507 c -2.47676,-0.64211 -6.36481,-1.44197 -11.684044,-1.91724 z m -14.111282,13.87096 v 4.49068 c 2.74706,1.91975 6.425504,1.91975 9.172564,0 v -4.49068 z"
         style="fill:#2398d5;fill-opacity:1;fill-rule:nonzero;stroke:none;stroke-width:0.352778;stroke-opacity:1"
         inkscape:connector-curvature="0" />
      <g
         id="g852"
         transform="translate(0.52916673,-5.8208336)">
        <path
           id="path76"
           style="fill:#333333;fill-opacity:1;fill-rule:nonzero;stroke:none;stroke-width:0.352778"
           d="m 106.83177,134.20226 c 0,-4.79072 0,-9.58145 0,-14.37217 1.28881,0 2.57763,0 3.86644,0 0.0426,5.01562 -0.0856,10.04184 0.0649,15.05076 1.3796,0.44629 1.33919,1.8348 1.56278,3.33115 -2.87578,1.38381 -5.91904,-0.75768 -5.49413,-4.00973 z m 62.25458,-7.90494 c -1.31692,0 -2.63384,0 -3.95076,0 -0.39671,-4.03209 -6.57042,-4.31968 -7.98513,-0.82212 -1.34111,3.07852 -1.14492,8.06683 2.51636,9.40918 2.97861,1.47475 4.71794,-1.89133 6.22829,-2.89189 0.98437,0.30381 3.59189,-0.72769 3.03777,0.85004 -1.21131,5.44916 -8.4433,7.32128 -12.75361,4.29915 -4.52423,-3.21595 -4.87049,-10.44484 -1.61349,-14.66474 3.64123,-4.62062 12.54175,-3.66187 14.2124,2.30648 0.148,0.49406 0.24761,1.00197 0.30817,1.51391 m -29.06215,2.3182 c 2.09033,-0.1027 5.32147,0.61991 5.92828,-2.10651 0.74657,-3.13752 -2.69933,-3.76144 -5.00338,-3.48608 -1.61103,-0.41661 -0.68159,1.70724 -0.9249,2.65835 0,0.97808 0,1.95616 0,2.93424 z m -3.9056,9.68728 c 0,-6.1575 0,-12.315 0,-18.4725 3.3597,0.13394 6.78686,-0.34185 10.08301,0.41023 4.79659,1.31326 5.21065,9.11817 0.56065,10.88218 1.30786,2.39336 2.61573,4.78673 3.92359,7.18009 -1.43722,0 -2.87443,0 -4.31165,0 -1.16652,-2.18287 -2.33303,-4.36575 -3.49955,-6.54862 -0.83852,0.30151 -2.93428,-0.65421 -2.85045,0.56965 0,1.99299 0,3.98598 0,5.97897 -1.30187,0 -2.60373,0 -3.9056,0 z m -3.21987,0 c -1.30187,0 -2.60374,0 -3.90561,0 0,-6.1575 0,-12.31501 0,-18.47251 1.30187,0 2.60374,0 3.90561,0 0,6.1575 0,12.31501 0,18.47251 z m -15.92012,-8.32542 c 1.93922,0 3.87844,0 5.81766,0 0.0858,-3.81207 -5.74884,-3.69673 -5.81766,0 z m 3.07587,8.59579 c -3.69711,0.29826 -6.96886,-2.91332 -6.86021,-6.59562 -0.46266,-3.70663 2.27255,-7.70161 6.2054,-7.69577 3.4852,-0.43999 6.88232,2.34077 6.95957,5.89385 0.62107,1.94354 -0.2767,2.53493 -2.03464,2.183 -2.44565,0.006 -4.91536,-0.012 -7.34599,0.009 -0.2894,4.01481 4.77518,3.85295 6.36807,1.76966 1.16245,0.2724 4.01586,-0.46983 2.50614,1.53552 -1.09455,2.08048 -3.56335,2.95161 -5.79834,2.90053 m -25.165158,-8.59596 c 1.939219,0 3.878439,0 5.817658,0 0.0858,-3.81207 -5.748826,-3.69673 -5.817658,0 z m 3.07587,8.59579 c -3.697107,0.29825 -6.968849,-2.91332 -6.860205,-6.59562 -0.46266,-3.70663 2.272561,-7.70161 6.205404,-7.69577 3.485189,-0.43998 6.882319,2.34076 6.959559,5.89385 0.62107,1.94354 -0.2767,2.53493 -2.03464,2.183 -2.445645,0.006 -4.915354,-0.012 -7.345988,0.009 -0.289386,4.01481 4.775181,3.85295 6.368078,1.76966 1.16245,0.2724 4.01585,-0.46983 2.50613,1.53552 -1.09454,2.08048 -3.56335,2.95161 -5.798338,2.90053 m -21.9002,-15.52303 c 0.222906,-0.97707 -0.464927,-2.86488 0.379764,-3.22016 4.930599,0 9.861197,0 14.791796,0 -0.222906,0.97707 0.464927,2.86488 -0.379764,3.22016 -1.758536,0 -3.517071,0 -5.275606,0 0,5.08412 0,10.16823 0,15.25235 -1.286933,0 -2.573867,0 -3.8608,0 0,-5.08412 0,-10.16823 0,-15.25235 -1.88513,0 -3.77026,0 -5.65539,0 z"
           inkscape:connector-curvature="0" />
      </g>
      <g
         id="g883"
         transform="translate(1.1957701,1.0583333)">
        <g
           transform="matrix(0.26458333,0,0,0.26458333,59.528739,57.46791)"
           id="g871">
          <g
             style="fill:#ffcc00;fill-opacity:1;stroke:#333333;stroke-width:5;stroke-miterlimit:4;stroke-dasharray:none;stroke-opacity:1"
             id="g12"
             transform="matrix(0.33849263,0,0,0.33849263,-13.780379,182.46248)">
            <g
               transform="translate(10.390702)"
               id="g856">
              <polygon
                 style="fill:#00ff00;fill-opacity:1;stroke:#333333;stroke-width:4.99863;stroke-miterlimit:4;stroke-dasharray:none;stroke-opacity:1"
                 id="polygon4"
                 points="335.766,352.128 335.766,370.058 353.696,370.058 353.696,352.128 371.625,352.128 371.625,334.198 353.696,334.198 353.696,316.269 335.766,316.269 335.766,334.198 317.836,334.198 317.836,352.128 "
                 transform="translate(-11.817096,5.9085482)" />
              <text
                 xml:space="preserve"
                 style="font-style:normal;font-weight:normal;font-size:118.171px;line-height:73.8568px;font-family:sans-serif;letter-spacing:0px;word-spacing:0px;fill:#ffcc00;fill-opacity:1;stroke:#333333;stroke-width:4.43141;stroke-linecap:butt;stroke-linejoin:miter;stroke-miterlimit:4;stroke-dasharray:none;stroke-opacity:1"
                 x="462.8172"
                 y="405.85806"
                 id="text843"><tspan
                   sodipodi:role="line"
                   id="tspan841"
                   x="462.8172"
                   y="405.85806"
                   style="font-style:normal;font-variant:normal;font-weight:bold;font-stretch:normal;font-size:78.7807px;font-family:Montserrat;-inkscape-font-specification:'Montserrat Bold';font-variant-ligatures:normal;font-variant-caps:normal;font-variant-numeric:normal;font-variant-east-asian:normal;fill:#ffcc00;stroke:#333333;stroke-width:4.43141;stroke-miterlimit:4;stroke-dasharray:none;stroke-opacity:1">C O M M I T T E R</tspan></text>
              <polygon
                 style="fill:#ffcc00;fill-opacity:1;stroke:#333333;stroke-width:5;stroke-miterlimit:4;stroke-dasharray:none;stroke-opacity:1"
                 id="polygon6"
                 points="371.625,398.737 353.696,398.737 353.696,380.807 335.766,380.807 335.766,398.737 335.766,416.667 353.696,416.667 371.625,416.667 "
                 transform="translate(-8.9650463,5.9085482)" />
              <polygon
                 style="fill:#ffcc00;fill-opacity:1;stroke:#333333;stroke-width:5;stroke-miterlimit:4;stroke-dasharray:none;stroke-opacity:1"
                 id="polygon8"
                 points="418.234,352.128 418.234,334.198 400.304,334.198 382.375,334.198 382.375,352.128 400.304,352.128 400.304,370.058 400.304,387.988 418.234,387.988 418.234,370.058 "
                 transform="translate(-8.9650463,5.9085482)" />
              <polygon
                 style="fill:#ff0000;fill-opacity:1;stroke:#333333;stroke-width:5;stroke-miterlimit:4;stroke-dasharray:none;stroke-opacity:1"
                 id="polygon10"
                 points="436.164,416.667 436.164,398.737 418.234,398.737 400.304,398.737 382.375,398.737 382.375,416.667 400.304,416.667 418.234,416.667 "
                 transform="translate(-8.9650463,5.9085482)" />
            </g>
          </g>
        </g>
      </g>
    </g>
  </g>
</svg>
