<?xml version="1.0" encoding="UTF-8" standalone="no"?>
<svg
   xmlns:dc="http://purl.org/dc/elements/1.1/"
   xmlns:cc="http://creativecommons.org/ns#"
   xmlns:rdf="http://www.w3.org/1999/02/22-rdf-syntax-ns#"
   xmlns:svg="http://www.w3.org/2000/svg"
   xmlns="http://www.w3.org/2000/svg"
   xmlns:sodipodi="http://sodipodi.sourceforge.net/DTD/sodipodi-0.dtd"
   xmlns:inkscape="http://www.inkscape.org/namespaces/inkscape"
   width="1280mm"
   height="720mm"
   viewBox="0 0 1280 720"
   version="1.1"
   id="svg8"
   inkscape:version="1.0.1 (3bc2e813f5, 2020-09-07)"
   sodipodi:docname="youtube-thumbnail.svg"
   inkscape:export-filename="/home/jwf/git/go/teleirc/assets/png/youtube-thumbnail.png"
   inkscape:export-xdpi="25.4"
   inkscape:export-ydpi="25.4">
  <title
     id="title1436">TeleIRC Developer Meeting thumbnail</title>
  <defs
     id="defs2">
    <filter
       id="filter875"
       inkscape:label="Drop Shadow"
       style="color-interpolation-filters:sRGB;">
      <feFlood
         id="feFlood865"
         result="flood"
         flood-color="rgb(0,0,0)"
         flood-opacity="0.498039" />
      <feComposite
         id="feComposite867"
         result="composite1"
         operator="in"
         in2="SourceGraphic"
         in="flood" />
      <feGaussianBlur
         id="feGaussianBlur869"
         result="blur"
         stdDeviation="1"
         in="composite1" />
      <feOffset
         id="feOffset871"
         result="offset"
         dy="3"
         dx="-3" />
      <feComposite
         id="feComposite873"
         result="composite2"
         operator="over"
         in2="offset"
         in="SourceGraphic" />
    </filter>
  </defs>
  <sodipodi:namedview
     id="base"
     pagecolor="#ffffff"
     bordercolor="#666666"
     borderopacity="1.0"
     inkscape:pageopacity="0.0"
     inkscape:pageshadow="2"
     inkscape:zoom="0.17"
     inkscape:cx="2122.0507"
     inkscape:cy="1371.9925"
     inkscape:document-units="mm"
     inkscape:current-layer="layer2"
     inkscape:document-rotation="0"
     showgrid="false"
     inkscape:window-width="1916"
     inkscape:window-height="961"
     inkscape:window-x="1920"
     inkscape:window-y="100"
     inkscape:window-maximized="1"
     showguides="true"
     inkscape:guide-bbox="true">
    <sodipodi:guide
       position="255.78922,532.43383"
       orientation="0,1"
       id="guide7379"
       inkscape:label=""
       inkscape:locked="false"
       inkscape:color="rgb(0,0,255)" />
    <sodipodi:guide
       position="237.49082,190.00585"
       orientation="0,-4837.7953"
       id="guide7383" />
    <sodipodi:guide
       position="198.27107,803.64192"
       orientation="-2721.2598,0"
       id="guide7385" />
    <sodipodi:guide
       position="558.73773,151.92402"
       orientation="1,0"
       id="guide7391" />
    <sodipodi:guide
       position="1044.326,198.6152"
       orientation="1,0"
       id="guide7393" />
  </sodipodi:namedview>
  <metadata
     id="metadata5">
    <rdf:RDF>
      <cc:Work
         rdf:about="">
        <dc:format>image/svg+xml</dc:format>
        <dc:type
           rdf:resource="http://purl.org/dc/dcmitype/StillImage" />
        <dc:title>TeleIRC Developer Meeting thumbnail</dc:title>
        <dc:date>2020-10-11</dc:date>
        <dc:creator>
          <cc:Agent>
            <dc:title>Justin W. Flory</dc:title>
          </cc:Agent>
        </dc:creator>
        <dc:rights>
          <cc:Agent>
            <dc:title>CC BY-NC-SA 4.0</dc:title>
          </cc:Agent>
        </dc:rights>
        <dc:publisher>
          <cc:Agent>
            <dc:title>docs.teleirc.com</dc:title>
          </cc:Agent>
        </dc:publisher>
        <dc:language>en</dc:language>
        <dc:contributor>
          <cc:Agent>
            <dc:title>Original TeleIRC logo design by Ura Design (https://ura.design/)</dc:title>
          </cc:Agent>
        </dc:contributor>
        <cc:license
           rdf:resource="http://creativecommons.org/licenses/by-nc-sa/4.0/" />
      </cc:Work>
      <cc:License
         rdf:about="http://creativecommons.org/licenses/by-nc-sa/4.0/">
        <cc:permits
           rdf:resource="http://creativecommons.org/ns#Reproduction" />
        <cc:permits
           rdf:resource="http://creativecommons.org/ns#Distribution" />
        <cc:requires
           rdf:resource="http://creativecommons.org/ns#Notice" />
        <cc:requires
           rdf:resource="http://creativecommons.org/ns#Attribution" />
        <cc:prohibits
           rdf:resource="http://creativecommons.org/ns#CommercialUse" />
        <cc:permits
           rdf:resource="http://creativecommons.org/ns#DerivativeWorks" />
        <cc:requires
           rdf:resource="http://creativecommons.org/ns#ShareAlike" />
      </cc:License>
    </rdf:RDF>
  </metadata>
  <g
     inkscape:label="Background"
     inkscape:groupmode="layer"
     id="layer1" />
  <g
     inkscape:label="Foreground"
     id="layer2"
     inkscape:groupmode="layer">
    <rect
       y="-0.25278053"
       x="-1.6926723"
       height="724.29382"
       width="1280.7441"
       id="rect831"
       style="fill:#2398d5;stroke:#000000;stroke-width:0.79375;fill-opacity:1" />
    <g
       id="g1486"
       transform="matrix(5.1807301,0,0,5.1807301,166.11739,-409.84578)" />
    <g
       id="g7413"
       transform="translate(0,104.52336)">
      <path
         id="path42"
         d="m 41.459698,100.81831 c -2.052637,0 -4.10533,0.78323 -5.671489,2.34921 l -19.58485,19.58485 c -3.132315,3.13231 -3.132315,8.21066 0,11.34298 l 0.06356,0.0636 c 2.166096,-0.72653 7.360452,-2.19444 15.667778,-2.89388 v -7.27398 h 4.938718 v 6.9727 c 1.455209,-0.0554 2.983614,-0.0863 4.586282,-0.0863 1.602668,0 3.131076,0.0309 4.586282,0.0863 v -6.9727 h 4.938718 v 7.27398 c 8.307324,0.69944 13.501684,2.16735 15.667774,2.89388 l 0.0636,-0.0636 c 3.13232,-3.13232 3.13232,-8.21067 0,-11.34298 L 47.131187,103.16752 c -1.566159,-1.56598 -3.618852,-2.34921 -5.671489,-2.34921 z m 6.4301,6.23424 c 0.09755,0.008 0.193934,0.0463 0.286803,0.13384 0.296333,0.27976 0.135167,0.58111 0.01241,0.8785 -2.006246,4.86763 -4.010391,9.736 -6.018753,14.60221 -0.118181,0.28611 -0.185584,0.62761 -0.587044,0.70487 -0.446265,-0.008 -0.548283,-0.39099 -0.702799,-0.70073 -0.73025,-1.46368 -1.477163,-2.91957 -2.164725,-4.40335 -0.335847,-0.72496 -0.802818,-1.22406 -1.540476,-1.56166 -1.523294,-0.69639 -3.012374,-1.46648 -4.512387,-2.2133 -0.279045,-0.139 -0.631042,-0.25062 -0.627867,-0.64079 0.0032,-0.39829 0.360786,-0.48726 0.651121,-0.6072 4.902907,-2.02318 9.806956,-4.04418 14.710214,-6.0663 0.164042,-0.0675 0.330914,-0.1391 0.493511,-0.12609 z m -6.4301,28.76414 c -1.610076,0 -3.137072,0.0331 -4.586282,0.0909 v 9.25008 h 9.172564 v -9.24905 c -1.450621,-0.0586 -2.977264,-0.092 -4.586282,-0.092 z m -9.525,0.40359 c -5.344305,0.47263 -9.224399,1.27138 -11.691792,1.91461 l 7.022828,7.02283 h 4.668964 z m 19.05,0.005 v 8.93227 h 4.668964 l 7.01508,-7.01507 c -2.47676,-0.64211 -6.36481,-1.44197 -11.684044,-1.91724 z m -14.111282,13.87096 v 4.49068 c 2.74706,1.91975 6.425504,1.91975 9.172564,0 v -4.49068 z"
         style="fill:#000000;fill-opacity:1;fill-rule:nonzero;stroke:none;stroke-width:0.352778"
         inkscape:connector-curvature="0"
         transform="matrix(5.18073,0,0,5.18073,166.11739,-409.84577)" />
      <path
         inkscape:connector-curvature="0"
         id="path50"
         style="fill:#000000;fill-opacity:1;fill-rule:nonzero;stroke:none;stroke-width:0.352778"
         d="m 76.064992,117.04247 v -3.22016 h 15.17156 v 3.22016 h -5.65537 v 15.25235 h -3.8608 v -15.25235 z"
         transform="matrix(5.18073,0,0,5.18073,166.11739,-409.84577)" />
      <path
         inkscape:connector-curvature="0"
         id="path54"
         style="fill:#000000;fill-opacity:1;fill-rule:nonzero;stroke:none;stroke-width:0.352778"
         d="m 94.889322,123.96954 h 5.817658 c -0.006,-0.82373 -0.27023,-1.50318 -0.793748,-2.03835 -0.52282,-0.53516 -1.20262,-0.80292 -2.03835,-0.80292 -0.85372,0 -1.55434,0.27658 -2.10149,0.83009 -0.54716,0.55315 -0.84209,1.22378 -0.88407,2.01118 m 3.07587,8.59579 c -1.41922,0 -2.64265,-0.28963 -3.671,-0.87031 -1.0287,-0.57996 -1.81928,-1.4037 -2.37243,-2.4712 -0.55316,-1.06751 -0.82974,-2.33187 -0.82974,-3.79272 0,-1.42522 0.27658,-2.67582 0.82974,-3.7525 0.55315,-1.07632 1.3335,-1.91523 2.34103,-2.51671 1.00683,-0.60114 2.19005,-0.90205 3.54895,-0.90205 1.22061,0 2.322678,0.25893 3.305868,0.77611 0.9832,0.51682 1.76319,1.29716 2.34069,2.34032 0.57749,1.04317 0.86571,2.34986 0.86571,3.91936 v 1.05516 h -9.434688 v 0.009 c 0,1.0347 0.28258,1.84961 0.84773,2.44475 0.5655,0.59549 1.32926,0.89288 2.29094,0.89288 0.64382,0 1.20015,-0.13511 1.66899,-0.40604 0.469188,-0.27059 0.799748,-0.67028 0.992008,-1.19945 l 3.55423,0.2346 c -0.27093,1.28658 -0.95637,2.31492 -2.05669,3.08469 -1.10067,0.76976 -2.507538,1.15428 -4.221338,1.15428"
         transform="matrix(5.18073,0,0,5.18073,166.11739,-409.84577)" />
      <path
         inkscape:connector-curvature="0"
         id="path58"
         style="fill:#000000;fill-opacity:1;fill-rule:nonzero;stroke:none;stroke-width:0.352778"
         d="m 116.97861,123.96954 h 5.81766 c -0.006,-0.82373 -0.27023,-1.50318 -0.79375,-2.03835 -0.52282,-0.53516 -1.20262,-0.80292 -2.03835,-0.80292 -0.85373,0 -1.55434,0.27658 -2.1015,0.83009 -0.54716,0.55315 -0.84208,1.22378 -0.88406,2.01118 m 3.07587,8.59579 c -1.41923,0 -2.64266,-0.28963 -3.67101,-0.87031 -1.0287,-0.57996 -1.81927,-1.4037 -2.37243,-2.4712 -0.55315,-1.06751 -0.82973,-2.33187 -0.82973,-3.79272 0,-1.42522 0.27658,-2.67582 0.82973,-3.7525 0.55316,-1.07632 1.3335,-1.91523 2.34103,-2.51671 1.00683,-0.60114 2.19005,-0.90205 3.54895,-0.90205 1.22061,0 2.32269,0.25893 3.30588,0.77611 0.98319,0.51682 1.76318,1.29716 2.34068,2.34032 0.5775,1.04317 0.86572,2.34986 0.86572,3.91936 v 1.05516 h -9.43469 v 0.009 c 0,1.0347 0.28257,1.84961 0.84772,2.44475 0.56551,0.59549 1.32927,0.89288 2.29094,0.89288 0.64382,0 1.20015,-0.13511 1.66899,-0.40604 0.4692,-0.27059 0.79975,-0.67028 0.99201,-1.19945 l 3.55424,0.2346 c -0.27093,1.28658 -0.95638,2.31492 -2.05669,3.08469 -1.10067,0.76976 -2.50755,1.15428 -4.22134,1.15428"
         transform="matrix(5.18073,0,0,5.18073,166.11739,-409.84577)" />
      <path
         inkscape:connector-curvature="0"
         id="path60"
         style="fill:#000000;fill-opacity:1;fill-rule:nonzero;stroke:none;stroke-width:0.352778"
         d="m 132.89873,132.29496 h -3.90561 v -18.47251 h 3.90561 z"
         transform="matrix(5.18073,0,0,5.18073,166.11739,-409.84577)" />
      <path
         inkscape:connector-curvature="0"
         id="path64"
         style="fill:#000000;fill-opacity:1;fill-rule:nonzero;stroke:none;stroke-width:0.352778"
         d="m 140.0242,122.60768 h 2.65219 c 2.21862,0 3.3281,-0.91722 3.3281,-2.75131 0,-1.89407 -1.11548,-2.84128 -3.34645,-2.84128 h -2.63384 z m -3.9056,9.68728 v -18.4725 h 7.28804 c 2.09867,0 3.72639,0.5468 4.88456,1.64147 1.15746,1.09467 1.73602,2.5587 1.73602,4.39244 0,1.26294 -0.28081,2.34244 -0.84314,3.2385 -0.56268,0.89605 -1.36984,1.56915 -2.42182,2.02 l 3.92359,7.18009 h -4.31165 l -3.49955,-6.54862 h -2.85045 v 6.54862 z"
         transform="matrix(5.18073,0,0,5.18073,166.11739,-409.84577)" />
      <path
         inkscape:connector-curvature="0"
         id="path68"
         style="fill:#000000;fill-opacity:1;fill-rule:nonzero;stroke:none;stroke-width:0.352778"
         d="m 169.08635,120.28947 h -3.95076 c -0.15028,-1.01635 -0.58349,-1.81469 -1.29892,-2.39466 -0.71544,-0.58067 -1.60832,-0.87065 -2.679,-0.87065 -1.43086,0 -2.5781,0.52458 -3.44099,1.57409 -0.8629,1.04952 -1.29399,2.53612 -1.29399,4.46052 0,1.97203 0.43392,3.47099 1.30316,4.49616 0.86889,1.02552 2.00378,1.53775 3.40501,1.53775 1.03999,0 1.92123,-0.27163 2.64266,-0.81597 0.72143,-0.54434 1.17546,-1.30916 1.36207,-2.29553 l 3.95076,0.018 c -0.13864,1.13066 -0.54116,2.19464 -1.20861,3.19264 -0.66746,0.99836 -1.5741,1.80729 -2.71957,2.42641 -1.14547,0.61948 -2.50895,0.92922 -4.09045,0.92922 -1.64748,0 -3.11962,-0.37289 -4.41537,-1.11831 -1.29576,-0.74577 -2.31775,-1.82527 -3.0667,-3.2385 -0.74895,-1.41252 -1.12289,-3.12349 -1.12289,-5.13186 0,-2.01436 0.37853,-3.72851 1.13665,-5.14173 0.75741,-1.41253 1.78576,-2.49061 3.08469,-3.23356 1.29857,-0.7426 2.76013,-1.11372 4.38362,-1.11372 1.42522,0 2.71039,0.26282 3.85586,0.78881 1.14546,0.52669 2.0835,1.29011 2.81446,2.29164 0.73025,1.00083 1.17969,2.21404 1.34831,3.63926"
         transform="matrix(5.18073,0,0,5.18073,166.11739,-409.84577)" />
      <path
         inkscape:connector-curvature="0"
         id="path76"
         style="fill:#000000;fill-opacity:1;fill-rule:nonzero;stroke:none;stroke-width:0.352778"
         d="m 106.83177,128.19441 v -14.37217 h 3.86644 v 14.53021 c 0,0.82938 0.38382,1.0922 0.69956,1.0922 0.14852,0 0.25365,0 0.47343,-0.0522 l 0.46108,2.85115 c -0.42686,0.18239 -1.06151,0.32174 -1.94063,0.32174 -2.65324,0 -3.55988,-1.73073 -3.55988,-4.37092"
         transform="matrix(5.18073,0,0,5.18073,166.11739,-409.84577)" />
      <text
         xml:space="preserve"
         style="font-style:normal;font-weight:normal;font-size:10.5833px;line-height:30.8679px;font-family:sans-serif;letter-spacing:0px;word-spacing:0px;fill:#000000;fill-opacity:1;stroke:none;stroke-width:0.264583px;stroke-linecap:butt;stroke-linejoin:miter;stroke-opacity:1"
         x="558.13019"
         y="332.47223"
         id="text7389"><tspan
           sodipodi:role="line"
           id="tspan7387"
           x="558.13019"
           y="332.47223"
           style="font-style:normal;font-variant:normal;font-weight:600;font-stretch:normal;font-size:49.3889px;font-family:Montserrat;-inkscape-font-specification:'Montserrat, Semi-Bold';font-variant-ligatures:normal;font-variant-caps:normal;font-variant-numeric:normal;font-variant-east-asian:normal;fill:#000000;fill-opacity:1;stroke-width:0.264583px">Developer Meeting</tspan></text>
    </g>
  </g>
</svg>
